<svg width="256" height="256" viewBox="-11 -11 150 150" fill="none" xmlns="http://www.w3.org/2000/svg" class="drop-shadow-2xl z-10 transition-transform duration-500 ease-out hover:scale-105" shape-rendering="geometricPrecision"><defs><linearGradient id="proxypilot-icon-gradient-5" x1="0%" y1="0%" x2="100%" y2="100%"><stop offset="0%" stop-color="#4F46E5"></stop><stop offset="100%" stop-color="#7C3AED"></stop></linearGradient></defs><path d="M 64 0 C 106 0 128 22 128 64 C 128 106 106 128 64 128 C 22 128 0 106 0 64 C 0 22 22 0 64 0 Z" fill="url(#proxypilot-icon-gradient-5)"></path><g transform="translate(64, 64)"><g stroke="white" stroke-width="7" stroke-linecap="round" stroke-linejoin="round" fill="none"><line x1="-18" y1="-26" x2="-18" y2="-8"></line><line x1="-18" y1="4" x2="-18" y2="26"></line><path d="M -18,-26 L 0,-26 Q 18,-26 18,-12 Q 18,2 0,2 L -18,2"></path><path d="M 0,2 Q 6,20 22,26"></path></g><g opacity="0.7"><line x1="-28" y1="-2" x2="-8" y2="-2" stroke="white" stroke-width="4" stroke-linecap="round"></line><line x1="24" y1="-18" x2="32" y2="-18" stroke="white" stroke-width="4" stroke-linecap="round"></line><line x1="26" y1="8" x2="34" y2="8" stroke="white" stroke-width="4" stroke-linecap="round"></line></g></g></svg>
